' *******************************************************************************
' Copyright (c) 2025 Elektrobit Automotive GmbH
'
' See the NOTICE file(s) distributed with this work for additional
' information regarding copyright ownership.
'
' This program and the accompanying materials are made available under the
' terms of the Apache License Version 2.0 which is available at
' https://www.apache.org/licenses/LICENSE-2.0
'
' SPDX-License-Identifier: Apache-2.0
' *******************************************************************************

@startuml
hide empty description

state "Service_state::not_available" as not_available
state "Service_state::available" as available

[*] --> not_available

not_available --> not_available: Runtime::make_server_connector()
not_available --> available: Disabled_server_connector::enable()

available --> not_available: Enabled_server_connector::disable()
available --> not_available: \~Enabled_server_connector()

not_available --> not_available: \~Disabled_server_connector():
@enduml
